<svg viewBox="0 0 42 41" fill="none" xmlns="http://www.w3.org/2000/svg">
<path class="bg" d="M41.4996 20.4973C41.4996 31.8177 32.3226 40.9947 21.0022 40.9947C9.68186 40.9947 0.504883 31.8177 0.504883 20.4973C0.504883 9.17697 9.68186 0 21.0022 0C32.3226 0 41.4996 9.17697 41.4996 20.4973ZM6.65409 20.4973C6.65409 28.4216 13.078 34.8455 21.0022 34.8455C28.9265 34.8455 35.3504 28.4216 35.3504 20.4973C35.3504 12.5731 28.9265 6.1492 21.0022 6.1492C13.078 6.1492 6.65409 12.5731 6.65409 20.4973Z" fill="#E7EBED"></path>
<path class="active" d="M30.4901 35.11C31.4148 36.5342 31.0164 38.4624 29.47 39.1639C25.5072 40.9616 21.0471 41.4625 16.7389 40.5464C11.4216 39.4157 6.77118 36.2191 3.81076 31.6596C0.850342 27.1002 -0.177596 21.5515 0.953084 16.2341C1.86918 11.9259 4.14151 8.0555 7.39605 5.16704C8.66606 4.03989 10.5895 4.46046 11.5142 5.88465V5.88465C12.4389 7.30883 12.0031 9.19374 10.8081 10.4002C8.88773 12.3391 7.54423 14.8023 6.96781 17.5131C6.17633 21.2352 6.89589 25.1193 8.96819 28.3109C11.0405 31.5025 14.2958 33.7402 18.0179 34.5317C20.7287 35.1081 23.5254 34.8831 26.078 33.9177C27.6662 33.3171 29.5654 33.6859 30.4901 35.11V35.11Z" fill="url(#paint0_linear)"/>
<defs>
<linearGradient id="paint0_linear" x1="23.6794" y1="-1.03511e-06" x2="23.6794" y2="40.9947" gradientUnits="userSpaceOnUse">
<stop stop-color="#5082E4"/>
<stop offset="1" stop-color="#52BCF8"/>
</linearGradient>
</defs>
</svg>